<svg width="40" height="40" viewBox="0 0 40 40" fill="none" xmlns="http://www.w3.org/2000/svg">
<rect width="40" height="40" rx="7" fill="#CFE9FF"/>
<path d="M15.1743 8V11.6M24.8251 8V11.6M9.74575 16.508H30.2537M30.8569 15.8V26C30.8569 29.6 29.0473 32 24.8251 32H15.1743C10.9521 32 9.14258 29.6 9.14258 26V15.8C9.14258 12.2 10.9521 9.8 15.1743 9.8H24.8251C29.0473 9.8 30.8569 12.2 30.8569 15.8Z" stroke="#0F8EFF" stroke-width="1.5" stroke-miterlimit="10" stroke-linecap="round" stroke-linejoin="round"/>
<path d="M24.4575 22.04H24.4683M24.4575 25.64H24.4683M19.994 22.04H20.0061M19.994 25.64H20.0061M15.5293 22.04H15.5414M15.5293 25.64H15.5414" stroke="#0F8EFF" stroke-width="1.5" stroke-linecap="round" stroke-linejoin="round"/>
</svg>
