<svg width="30" height="30" viewBox="0 0 30 30" fill="none" xmlns="http://www.w3.org/2000/svg">
<path d="M10.8398 17.9124C10.8398 19.5249 12.0773 20.8249 13.6148 20.8249H16.7523C18.0898 20.8249 19.1773 19.6874 19.1773 18.2874C19.1773 16.7624 18.5148 16.2249 17.5273 15.8749L12.4898 14.1249C11.5023 13.7749 10.8398 13.2374 10.8398 11.7124C10.8398 10.3124 11.9273 9.17493 13.2648 9.17493H16.4023C17.9398 9.17493 19.1773 10.4749 19.1773 12.0874" stroke="white" stroke-width="2" stroke-linecap="round" stroke-linejoin="round"/>
<path d="M15 7.50012V22.5001" stroke="white" stroke-width="2" stroke-linecap="round" stroke-linejoin="round"/>
<path d="M18.75 27.5001H11.25C5 27.5001 2.5 25.0001 2.5 18.7501V11.2501C2.5 5.00012 5 2.50012 11.25 2.50012H18.75C25 2.50012 27.5 5.00012 27.5 11.2501V18.7501C27.5 25.0001 25 27.5001 18.75 27.5001Z" stroke="white" stroke-width="2" stroke-linecap="round" stroke-linejoin="round"/>
</svg>
