<svg width="73" height="24" viewBox="0 0 73 24" fill="none" xmlns="http://www.w3.org/2000/svg">
<path d="M5.84 14.676V18.888H15.524C16.46 18.636 17.144 17.772 17.144 16.8C17.144 15.792 16.46 14.892 15.452 14.676H5.84ZM21.284 13.272C21.896 14.352 22.22 15.54 22.22 16.8C22.22 18.024 21.896 19.248 21.284 20.292C20.024 22.596 17.612 24 14.984 24C14.696 24 14.444 24 14.156 23.964C13.868 24 13.616 24 13.328 24H0.8V9.528H13.76C14.768 9.312 15.524 8.412 15.524 7.368C15.524 6.396 14.84 5.532 13.904 5.28H5.84H0.8V0.167998H13.328C15.92 0.167998 18.332 1.536 19.592 3.768C19.628 3.804 19.664 3.84 19.664 3.876C20.24 4.956 20.564 6.144 20.564 7.368C20.564 8.628 20.24 9.852 19.664 10.896C19.628 10.932 19.628 10.932 19.628 10.968C19.592 11.04 19.556 11.112 19.52 11.148C19.592 11.22 19.7 11.292 19.772 11.364C20.384 11.904 20.888 12.552 21.284 13.272Z" fill="black"/>
<path d="M33.1744 18.78H47.3224V24H33.1744C30.5464 24 28.0984 22.632 26.8024 20.364C26.1904 19.248 25.8664 18.024 25.8664 16.728C25.8664 15.468 26.1904 14.208 26.8024 13.128C28.0984 10.86 30.5464 9.456 33.1744 9.456H39.9784C41.1304 9.456 42.0304 8.556 42.0304 7.44C42.0304 6.324 41.1304 5.388 39.9784 5.388H25.8664V0.167998H39.9784C42.6064 0.167998 45.0544 1.572 46.3504 3.84C46.9624 4.92 47.3224 6.18 47.3224 7.44C47.3224 8.7 46.9624 9.96 46.3504 11.04C46.0264 11.58 45.6664 12.084 45.2344 12.516C43.8664 13.92 41.9944 14.712 39.9784 14.712H33.1744C32.0224 14.712 31.1224 15.612 31.1224 16.728C31.1224 17.88 32.0224 18.78 33.1744 18.78ZM55.9728 14.676V18.888H65.6568C66.5928 18.636 67.2768 17.772 67.2768 16.8C67.2768 15.792 66.5928 14.892 65.5848 14.676H55.9728ZM71.4168 13.272C72.0288 14.352 72.3528 15.54 72.3528 16.8C72.3528 18.024 72.0288 19.248 71.4168 20.292C70.1568 22.596 67.7448 24 65.1168 24C64.8288 24 64.5768 24 64.2888 23.964C64.0008 24 63.7488 24 63.4608 24H50.9328V9.528H63.8928C64.9008 9.312 65.6568 8.412 65.6568 7.368C65.6568 6.396 64.9728 5.532 64.0368 5.28H55.9728H50.9328V0.167998H63.4608C66.0528 0.167998 68.4648 1.536 69.7248 3.768C69.7608 3.804 69.7968 3.84 69.7968 3.876C70.3728 4.956 70.6968 6.144 70.6968 7.368C70.6968 8.628 70.3728 9.852 69.7968 10.896C69.7608 10.932 69.7608 10.932 69.7608 10.968C69.7248 11.04 69.6888 11.112 69.6528 11.148C69.7248 11.22 69.8328 11.292 69.9048 11.364C70.5168 11.904 71.0208 12.552 71.4168 13.272Z" fill="#0F8EFF"/>
</svg>
