<svg width="30" height="30" viewBox="0 0 30 30" fill="none" xmlns="http://www.w3.org/2000/svg">
<path d="M11.8757 17.1875C11.8757 18.4 12.8132 19.375 13.9632 19.375H16.3132C17.3132 19.375 18.1257 18.525 18.1257 17.4625C18.1257 16.325 17.6257 15.9125 16.8882 15.65L13.1257 14.3375C12.3882 14.075 11.8882 13.675 11.8882 12.525C11.8882 11.475 12.7007 10.6125 13.7007 10.6125H16.0507C17.2007 10.6125 18.1382 11.5875 18.1382 12.8" stroke="white" stroke-width="2" stroke-linecap="round" stroke-linejoin="round"/>
<path d="M15.0007 9.37476V20.6248" stroke="white" stroke-width="2" stroke-linecap="round" stroke-linejoin="round"/>
<path d="M27.5006 15C27.5006 21.9 21.9006 27.5 15.0006 27.5C8.10061 27.5 2.50061 21.9 2.50061 15C2.50061 8.1 8.10061 2.5 15.0006 2.5" stroke="white" stroke-width="2" stroke-linecap="round" stroke-linejoin="round"/>
<path d="M27.5006 7.5V2.5H22.5006" stroke="white" stroke-width="2" stroke-linecap="round" stroke-linejoin="round"/>
<path d="M21.2506 8.75L27.5006 2.5" stroke="white" stroke-width="2" stroke-linecap="round" stroke-linejoin="round"/>
</svg>
